<svg width="20" height="28" viewBox="0 0 20 28" fill="none" xmlns="http://www.w3.org/2000/svg">
<path d="M17.1128 0H2.88722C1.51582 0 0.400085 1.11579 0.400085 2.48719V23.7147C0.400085 25.0861 1.51582 26.2019 2.88722 26.2019H3.19615V27.1724C3.19615 27.6294 3.56671 28 4.02373 28C4.48076 28 4.85132 27.6294 4.85132 27.1724V26.2019H15.149V27.1724C15.149 27.6294 15.5196 28 15.9766 28C16.4336 28 16.8042 27.6294 16.8042 27.1724V26.2019H17.1128C18.4842 26.2019 19.5999 25.0861 19.5999 23.7147V2.48719C19.5999 1.11579 18.4841 0 17.1128 0ZM2.0552 2.48719C2.0552 2.02841 2.42845 1.65512 2.88722 1.65512H9.17256V19.5171H2.0552V2.48719ZM17.9448 23.7147C17.9448 24.1735 17.5715 24.5468 17.1128 24.5468H2.88722C2.42845 24.5468 2.0552 24.1735 2.0552 23.7147V21.1724H17.9447V23.7147H17.9448ZM17.9448 19.5172H10.8277V1.65517H17.1128C17.5715 1.65517 17.9448 2.02847 17.9448 2.48724V19.5172Z" fill="white"/>
</svg>
