<svg width="28" height="24" viewBox="0 0 28 24" fill="none" xmlns="http://www.w3.org/2000/svg">
<path d="M27.1797 15.2812C26.4851 15.2812 19.5718 15.2812 18.1562 15.2812V13.6406H23.8984C24.3515 13.6406 24.7188 13.2733 24.7188 12.8203V1.33594C24.7188 0.882906 24.3515 0.515625 23.8984 0.515625H4.10156C3.64853 0.515625 3.28125 0.882906 3.28125 1.33594V12.8203C3.28125 13.2733 3.64853 13.6406 4.10156 13.6406H9.84375V15.2812C9.00648 15.2812 1.95557 15.2812 0.820312 15.2812C0.367281 15.2812 0 15.6485 0 16.1016V22.6641C0 23.1171 0.367281 23.4844 0.820312 23.4844H7.38281C7.83584 23.4844 8.20312 23.1171 8.20312 22.6641V20.2031H19.7969V22.6641C19.7969 23.1171 20.1642 23.4844 20.6172 23.4844H27.1797C27.6327 23.4844 28 23.1171 28 22.6641V16.1016C28 15.6485 27.6327 15.2812 27.1797 15.2812ZM4.92188 2.15625H23.0781V12H4.92188V2.15625ZM11.4844 13.6406H16.5156V15.2812H11.4844V13.6406ZM6.5625 21.8438H1.64062V16.9219H6.5625V21.8438ZM8.20312 18.5625V16.9219H19.7969V18.5625H8.20312ZM26.3594 21.8438H21.4375V16.9219H26.3594V21.8438Z" fill="white"/>
<path d="M4.10156 20.2031C4.55461 20.2031 4.92188 19.8359 4.92188 19.3828C4.92188 18.9298 4.55461 18.5625 4.10156 18.5625C3.64852 18.5625 3.28125 18.9298 3.28125 19.3828C3.28125 19.8359 3.64852 20.2031 4.10156 20.2031Z" fill="white"/>
<path d="M23.8984 20.2031C24.3515 20.2031 24.7188 19.8359 24.7188 19.3828C24.7188 18.9298 24.3515 18.5625 23.8984 18.5625C23.4454 18.5625 23.0781 18.9298 23.0781 19.3828C23.0781 19.8359 23.4454 20.2031 23.8984 20.2031Z" fill="white"/>
</svg>
