<svg width="28" height="22" viewBox="0 0 28 22" fill="none" xmlns="http://www.w3.org/2000/svg">
<path d="M25.5391 6.89844C24.6589 6.89844 23.8244 7.09777 23.0781 7.45324V6.07812C23.0781 2.91188 20.5022 0.335938 17.3359 0.335938H10.6641C7.49782 0.335938 4.92188 2.91188 4.92188 6.07812V7.45324C4.17555 7.09777 3.34113 6.89844 2.46094 6.89844C1.10398 6.89844 0 8.00241 0 9.35938C0 10.7163 1.10398 11.8203 2.46094 11.8203C2.91326 11.8203 3.28125 12.1883 3.28125 12.6406V19.2031C3.28125 19.6562 3.64853 20.0234 4.10156 20.0234H4.92188V20.8438C4.92188 21.2968 5.28916 21.6641 5.74219 21.6641C6.19522 21.6641 6.5625 21.2968 6.5625 20.8438V20.0234H21.4375V20.8438C21.4375 21.2968 21.8048 21.6641 22.2578 21.6641C22.7108 21.6641 23.0781 21.2968 23.0781 20.8438V20.0234H23.8984C24.3515 20.0234 24.7188 19.6562 24.7188 19.2031V12.6406C24.7188 12.1883 25.0867 11.8203 25.5391 11.8203C26.896 11.8203 28 10.7163 28 9.35938C28 8.00241 26.896 6.89844 25.5391 6.89844ZM10.6641 1.97656H17.3359C19.5975 1.97656 21.4375 3.81652 21.4375 6.07812V8.62634C20.9952 9.07823 20.6266 9.60246 20.3517 10.1797H7.64832C7.37335 9.60246 7.00481 9.07823 6.5625 8.62634V6.07812C6.5625 3.81652 8.40246 1.97656 10.6641 1.97656ZM19.7969 12.6406V13.4609H8.20312V12.6406C8.20312 12.3621 8.18278 12.0883 8.14428 11.8203H19.8557C19.8172 12.0883 19.7969 12.3621 19.7969 12.6406ZM8.20312 15.1016H19.7969V18.3828H8.20312V15.1016ZM2.46094 10.1797C2.00862 10.1797 1.64062 9.8117 1.64062 9.35938C1.64062 8.90705 2.00862 8.53906 2.46094 8.53906C4.72254 8.53906 6.5625 10.379 6.5625 12.6406V18.3828H4.92188V12.6406C4.92188 11.2837 3.8179 10.1797 2.46094 10.1797ZM25.5391 10.1797C24.1821 10.1797 23.0781 11.2837 23.0781 12.6406V18.3828H21.4375V12.6406C21.4375 10.379 23.2775 8.53906 25.5391 8.53906C25.9914 8.53906 26.3594 8.90705 26.3594 9.35938C26.3594 9.8117 25.9914 10.1797 25.5391 10.1797Z" fill="white"/>
</svg>
